<svg xmlns="http://www.w3.org/2000/svg" width="39.416" height="39.438" viewBox="0 0 39.416 39.438"><path d="M48.5,28.582c0,2.765-.056,5.537.016,8.3a10.985,10.985,0,0,1-6.872,10.36,12.427,12.427,0,0,1-4.934,1.033c-5.347.008-10.7.079-16.048-.024a11.7,11.7,0,0,1-9.716-5.084A9.918,9.918,0,0,1,9.1,37.281V20.2c0-4.647,2.264-7.9,6.284-10.01A12.075,12.075,0,0,1,21.009,8.88c5.188,0,10.383-.032,15.571.016a11.942,11.942,0,0,1,9.867,4.814,9.941,9.941,0,0,1,2.05,6.181Zm-36.465,0v8.739a6.828,6.828,0,0,0,.977,3.631,8.786,8.786,0,0,0,7.77,4.369c5.331.079,10.669.032,16.008.016a8.685,8.685,0,0,0,3.766-.834c3.225-1.541,5.029-4,5.013-7.682-.032-5.641-.008-11.281-.008-16.922a7.169,7.169,0,0,0-1.4-4.346,8.881,8.881,0,0,0-7.372-3.718c-5.323-.064-10.646-.024-15.968-.016a9.379,9.379,0,0,0-3.3.628,8.139,8.139,0,0,0-5.513,7.9C12.1,23.1,12.032,25.841,12.032,28.582Z" transform="translate(-9.1 -8.869)" fill="#ff4c29"/><path d="M150.263,151.272a9.137,9.137,0,1,1,9.247-9.144A9.2,9.2,0,0,1,150.263,151.272Zm0-2.939a6.2,6.2,0,1,0-6.332-6.2A6.259,6.259,0,0,0,150.263,148.333Z" transform="translate(-130.521 -123.138)" fill="#ff4c29"/><path d="M365.038,98a2.028,2.028,0,1,1-1.938,2.042A2,2,0,0,1,365.038,98Z" transform="translate(-334.976 -90.919)" fill="#ff4c29"/></svg>