<svg xmlns="http://www.w3.org/2000/svg" width="23" height="24.338" viewBox="0 0 23 24.338">
  <path id="Trazado_1" data-name="Trazado 1" d="M11.937-50.488a17.061,17.061,0,0,1,3.562,3q2.843,2.763,5.391,5.7t2.549,3.48q0,.58-2.549,3.582T15.5-28.945q-2.843,2.78-3.562,2.78-.523.034-2.5-1.655T5.386-31.64a47.548,47.548,0,0,1-3.611-4.128q-1.536-2-1.307-2.541a25.344,25.344,0,0,1,2.81-3.838q2.483-3.053,5.212-5.8T11.937-50.488Zm4.934,12.179q.131-.478-2.108-2.644a20.185,20.185,0,0,0-2.826-2.473q-.457-.2-2.712,2.183T6.971-38.309q.033.478,2.3,2.78t2.663,2.3q.359,0,2.581-2.286A12.647,12.647,0,0,0,16.871-38.309Zm-4.934-1.944A9.208,9.208,0,0,1,13-39.316q.833.8.8,1.006a6.567,6.567,0,0,1-.9,1.04q-.833.87-.964.87-.163,0-1.013-.87t-.85-1.04q0-.2.85-1.109T11.937-40.254Z" transform="translate(-0.439 50.502)" fill="#ff4c29"/>
</svg>
