<?xml version="1.0" encoding="UTF-8"?>
<!DOCTYPE svg PUBLIC "-//W3C//DTD SVG 1.1//EN" "http://www.w3.org/Graphics/SVG/1.1/DTD/svg11.dtd">
<!-- Creator: CorelDRAW 2019 (64-Bit) -->
<svg xmlns="http://www.w3.org/2000/svg" xml:space="preserve" width="12.2178mm" height="2.8287mm" version="1.1" style="shape-rendering:geometricPrecision; text-rendering:geometricPrecision; image-rendering:optimizeQuality; fill-rule:evenodd; clip-rule:evenodd"
viewBox="0 0 695.87 161.11"
 xmlns:xlink="http://www.w3.org/1999/xlink">
 <defs>
  <style type="text/css">
   <![CDATA[
    .fil0 {fill:black;fill-rule:nonzero}
    .fil1 {fill:white;fill-rule:nonzero}
   ]]>
  </style>
 </defs>
 <g id="Capa_x0020_1">
  <metadata id="CorelCorpID_0Corel-Layer"/>
  <path class="fil0" d="M57.76 45.06c0.35,-0.23 0.65,-0.56 0.88,-0.95 0.23,-0.4 0.36,-0.9 0.36,-1.43l0 -25.43c0,-0.62 -0.24,-1.17 -0.61,-1.54 -0.42,-0.39 -0.97,-0.64 -1.58,-0.64l-39.56 0c-0.6,0 -1.16,0.25 -1.55,0.64l-0.19 0.18c-0.28,0.36 -0.45,0.83 -0.45,1.36l0 103.18c0,0.6 0.25,1.16 0.64,1.55 0.39,0.39 0.95,0.64 1.55,0.64l29.32 0c4.16,0 7.54,3.38 7.54,7.54l0 7.58 4.9 2.83 0 -65.08 -9.37 5.41 0.67 0.39c2.41,1.38 3.76,3.91 3.76,6.5l0.03 22.39c0,4.16 -3.38,7.54 -7.54,7.54l-19.03 0c-4.16,0 -7.54,-3.38 -7.54,-7.54l0 -82.68c0,-4.16 3.38,-7.54 7.54,-7.54l19.03 0c4.16,0 7.54,3.38 7.54,7.54l0 19.67 3.66 -2.11zm13.89 6.59c-0.76,1.31 -1.69,2.53 -2.78,3.63 2.49,0.81 4.41,2.88 5.01,5.46l0 -15.46c-0.34,2.25 -1.1,4.41 -2.23,6.37zm-2.64 -46.58l0.26 0.27c0.94,-3.09 3.82,-5.34 7.21,-5.34l29.87 0c1.3,0.01 2.63,0.35 3.83,1.06l0.75 0.51c1.28,-0.98 2.87,-1.57 4.6,-1.57l29.83 0c1.3,0.01 2.63,0.35 3.83,1.06l1.2 0.88c1.33,-1.2 3.1,-1.94 5.03,-1.94l68.87 0c1.32,0.02 2.65,0.36 3.86,1.09 1.87,1.12 3.08,2.93 3.5,4.91l0.57 -0.6c3.33,-3.33 7.95,-5.4 13.03,-5.4l36.94 0c5.15,0 9.84,2.1 13.23,5.49l0.51 0.56c0.69,-3.45 3.74,-6.05 7.39,-6.05l68.87 0c1.32,0.02 2.65,0.36 3.86,1.09 3.56,2.12 4.72,6.74 2.59,10.3l-3.53 5.92c-0.26,0.69 -0.24,0.57 -0.31,1.31 0,11.93 -1.23,97.9 0.37,101.86l3.09 5.2c0.92,1.25 1.47,2.8 1.47,4.47 0,4.16 -3.38,7.54 -7.54,7.54l-29.83 0c-1.3,-0.01 -2.63,-0.35 -3.83,-1.06l-0.75 -0.51c-1.28,0.98 -2.87,1.57 -4.6,1.57l-29.87 0c-1.32,-0.02 -2.65,-0.36 -3.86,-1.09 -1.89,-1.13 -3.1,-2.95 -3.5,-4.95l-0.53 0.55c-3.42,3.38 -8.1,5.48 -13.23,5.48l-36.94 0c-5.08,0 -9.69,-2.07 -13.03,-5.4l-0.55 -0.58c-0.72,3.41 -3.75,5.97 -7.37,5.97l-29.83 0c-1.3,-0.01 -2.63,-0.35 -3.83,-1.06l-0.75 -0.51c-1.28,0.98 -2.87,1.57 -4.6,1.57l-29.87 0c-1.32,-0.02 -2.65,-0.36 -3.86,-1.09 -3.56,-2.12 -4.72,-6.74 -2.59,-10.3l3.51 -5.9c0.22,-0.38 0.34,-0.84 0.34,-1.34 0,-11.78 1.19,-97.98 -0.34,-101.77l-2.08 -3.5 -2.07 3.45c-0.24,0.4 -0.37,0.96 -0.37,1.57l0 101.45c0,4.78 -1.96,9.14 -5.11,12.3 -3.18,3.17 -7.55,5.14 -12.33,5.14l-39.21 0c-4.78,0 -9.14,-1.96 -12.29,-5.11 -2.6,-2.6 -4.37,-5.99 -4.94,-9.75l0 30.76c-0.02,1.28 -0.34,2.58 -1.03,3.77 -2.08,3.59 -6.69,4.81 -10.27,2.73l-19.52 -11.28c-2.49,-1.22 -4.21,-3.79 -4.21,-6.76l0 -4.37 -21.78 0c-4.77,0 -9.08,-1.94 -12.2,-5.06 -3.12,-3.12 -5.06,-7.44 -5.06,-12.2l0 -103.18c0,-4.47 1.74,-8.58 4.57,-11.65l0.49 -0.54c3.12,-3.12 7.43,-5.06 12.2,-5.06l39.56 0c4.77,0 9.08,1.94 12.19,5.07zm-33.93 66.88l8.39 -4.85c-2.61,-1.18 -4.43,-3.81 -4.43,-6.86l0 -25.19 -3.96 0 0 36.91zm3.96 20.16l-3.96 -2.28 0 12.82 3.96 0 0 -10.54zm94.23 -77.03l-5.7 0c0.27,1.25 0.41,2.51 0.41,3.73l0 86.77c0,3.35 -1.37,6.38 -3.57,8.58 -2.2,2.2 -5.23,3.57 -8.58,3.57l-9.84 0c-3.34,0 -6.38,-1.38 -8.57,-3.59 -2.2,-2.21 -3.55,-5.26 -3.55,-8.56l0 -86.77c0,-1.25 0.13,-2.5 0.39,-3.73l-5.72 0c0.27,1.26 0.4,2.52 0.4,3.73l0 101.45c0,0.67 0.26,1.27 0.68,1.69 0.42,0.42 1.02,0.68 1.68,0.68l39.21 0c0.67,0 1.27,-0.26 1.69,-0.68 0.42,-0.42 0.68,-1.02 0.68,-1.69l0 -101.45c0,-1.25 0.13,-2.5 0.39,-3.73zm-20.82 2.07l-1.53 -2.58 -1.61 2.67c-0.24,0.4 -0.37,0.96 -0.37,1.57l0 83.84 3.96 0 0 -83.84 -0.09 -0.84 -0.37 -0.82zm99.36 1.49c0,-1.16 0.13,-2.35 0.39,-3.55l-44.7 0c0.26,1.21 0.39,2.4 0.39,3.55l0 100.43c0,1.2 -0.12,2.39 -0.36,3.56l5.67 0c-0.26,-1.21 -0.39,-2.41 -0.39,-3.56l0 -40.61c0,-2.96 1.71,-5.53 4.21,-6.76l18.59 -10.75c3.59,-2.08 8.2,-0.85 10.27,2.73 0.69,1.19 1.01,2.49 1.01,3.77l0.02 51.61c0,1.16 -0.14,2.35 -0.4,3.56l5.68 0c-0.26,-1.2 -0.39,-2.4 -0.39,-3.56l0 -100.43zm-23.6 101.77l1.63 2.76 1.63 -2.77 0.3 -0.67 0.07 -0.67 0 -38.57 -3.96 2.29c0,5.86 -0.95,34.29 0.33,37.62zm-15.4 -65.01l-0.01 -27.88c0,-4.16 3.38,-7.54 7.54,-7.54l19.03 0c4.16,0 7.54,3.38 7.54,7.54l0 16.87c0,2.96 -1.71,5.53 -4.21,6.76l-18.59 10.75c-3.59,2.08 -8.2,0.85 -10.27,-2.73 -0.69,-1.19 -1.01,-2.49 -1.03,-3.77zm15.06 -20.34l0 7.3 3.96 -2.3 0 -5.01 -3.96 0zm82.75 -19.97l-25.4 0c-0.93,0 -1.77,0.38 -2.38,0.98 -0.6,0.6 -0.98,1.45 -0.98,2.37l0 100.84c0,0.93 0.38,1.77 0.98,2.38 0.6,0.6 1.45,0.98 2.38,0.98l36.94 0c1.02,0 1.94,-0.4 2.59,-1.05 0.64,-0.67 1.05,-1.58 1.05,-2.59l0 -1.67c-1.29,0.28 -2.56,0.42 -3.76,0.42l-22.69 0c-3.46,0 -6.62,-1.41 -8.9,-3.69 -2.27,-2.27 -3.69,-5.43 -3.69,-8.9l0 -72.58c0,-3.45 1.42,-6.58 3.69,-8.86 2.31,-2.3 5.44,-3.72 8.89,-3.72l22.69 0c1.21,0 2.48,0.14 3.76,0.42l0 -1.67c0,-1.02 -0.4,-1.94 -1.04,-2.57 -0.68,-0.65 -1.6,-1.07 -2.6,-1.07l-11.53 0zm18.52 83.92c1.2,-0.81 2.64,-1.28 4.2,-1.28 3.57,0 6.57,2.49 7.34,5.83l0 -69.46c-0.17,0.75 -0.46,1.49 -0.87,2.18 -2.11,3.57 -6.73,4.76 -10.3,2.65l-5.75 -3.42 -0.83 -0.36 -0.89 -0.09 -20.2 0 0 67.61 20.2 0c2.34,-0.19 5.11,-2.47 7.1,-3.65zm70.54 -80.37c0,-1.16 0.13,-2.35 0.39,-3.55l-44.7 0c0.26,1.21 0.39,2.4 0.39,3.55l0 100.43c0,1.2 -0.12,2.39 -0.36,3.56l5.67 0c-0.26,-1.21 -0.39,-2.41 -0.39,-3.56l0 -40.61c0,-2.96 1.71,-5.53 4.21,-6.76l18.59 -10.75c3.59,-2.08 8.2,-0.85 10.27,2.73 0.69,1.19 1.01,2.49 1.01,3.77l0.02 51.61c0,1.16 -0.14,2.35 -0.4,3.56l5.68 0c-0.26,-1.2 -0.39,-2.4 -0.39,-3.56l0 -100.43zm-23.6 101.77l1.63 2.76 1.63 -2.77 0.3 -0.67 0.07 -0.67 0 -38.57 -3.96 2.29c0,5.86 -0.95,34.29 0.33,37.62zm-15.4 -65.01l-0.01 -27.88c0,-4.16 3.38,-7.54 7.54,-7.54l19.03 0c4.16,0 7.54,3.38 7.54,7.54l0 16.87c0,2.96 -1.71,5.53 -4.21,6.76l-18.59 10.75c-3.59,2.08 -8.2,0.85 -10.27,-2.73 -0.69,-1.19 -1.01,-2.49 -1.03,-3.77zm15.06 -20.34l0 7.3 3.96 -2.3 0 -5.01 -3.96 0z"/>
  <path class="fil1" d="M61.34 51.68c3.21,-1.84 5.2,-5.29 5.2,-8.99l0 -25.43c0,-5.37 -4.35,-9.72 -9.72,-9.72l-39.56 0c-5.37,0 -9.72,4.35 -9.72,9.72l0 103.18c0,5.37 4.35,9.72 9.72,9.72l29.32 0 0 11.91 19.97 11.53 0 -91.15 -31.94 18.45 11.97 6.89 0 0 0 11.74 0 10.66 -19.03 0 0 -82.68 19.03 0 0 32.73 14.77 -8.55zm79.08 -44.14l-24.9 0 3.41 5.78c1,1.67 1.52,3.57 1.52,5.49l0 86.77c0,2.54 -2.07,4.61 -4.61,4.61l-9.84 0c-2.54,0 -4.58,-2.07 -4.58,-4.61l0 -86.77c0,-1.93 0.5,-3.82 1.49,-5.46l3.45 -5.81 -29.87 0 3.45 5.81c1,1.63 1.49,3.53 1.49,5.46l0 101.45c0,5.46 4.44,9.9 9.89,9.9l39.21 0c5.46,0 9.9,-4.44 9.9,-9.9l0 -101.45c0,-1.93 0.5,-3.82 1.49,-5.46l3.45 -5.81 -4.93 0 0 0zm78.93 11.09c0,-1.81 0.5,-3.59 1.4,-5.17l3.53 -5.92 -68.87 0 3.54 5.92c0.93,1.58 1.4,3.36 1.4,5.17l0 100.43c0,1.81 -0.47,3.59 -1.4,5.17l-3.54 5.93 29.87 0 -3.53 -5.93c-0.93,-1.57 -1.4,-3.35 -1.4,-5.17l0 -40.61 19.03 -11 0 51.61c0,1.81 -0.5,3.59 -1.43,5.17l-3.5 5.93 29.83 0 -3.53 -5.93c-0.91,-1.57 -1.4,-3.35 -1.4,-5.17l0 -100.43zm-39 36.76l0 -27.88 19.03 0 0 16.87 -19.03 11.01zm90.29 -47.85l-25.4 0c-6.01,0 -10.89,4.88 -10.89,10.88l0 100.84c0,6.01 4.88,10.89 10.89,10.89l36.94 0c6.16,0 11.18,-5 11.18,-11.18l0 -13.72 -5.75 3.41c-1.69,1 -3.62,1.52 -5.55,1.52l-22.69 0c-2.77,0 -5.05,-2.25 -5.05,-5.05l0 -72.58c0,-2.77 2.27,-5.05 5.05,-5.05l22.69 0c1.93,0 3.86,0.52 5.55,1.52l5.75 3.42 0 -13.72c0,-6.16 -5.02,-11.18 -11.18,-11.18l-11.53 0 0 0zm96.59 11.09c0,-1.81 0.5,-3.59 1.4,-5.17l3.53 -5.92 -68.87 0 3.54 5.92c0.93,1.58 1.4,3.36 1.4,5.17l0 100.43c0,1.81 -0.47,3.59 -1.4,5.17l-3.54 5.93 29.87 0 -3.53 -5.93c-0.93,-1.57 -1.4,-3.35 -1.4,-5.17l0 -40.61 19.03 -11 0 51.61c0,1.81 -0.5,3.59 -1.43,5.17l-3.5 5.93 29.83 0 -3.53 -5.93c-0.91,-1.57 -1.4,-3.35 -1.4,-5.17l0 -100.43zm-39 36.76l0 -27.88 19.03 0 0 16.87 -19.03 11.01z"/>
  <path class="fil0" d="M469.14 119.83c0.46,1.2 1.67,2.9 2.36,4.07l2.08 -3.51c0.22,-0.38 0.34,-0.84 0.34,-1.34 0,-11.78 1.19,-97.98 -0.34,-101.77l-3.22 -5.41c-0.87,-1.23 -1.38,-2.73 -1.38,-4.34 0,-4.16 3.38,-7.54 7.54,-7.54l68.87 0c1.32,0.02 2.65,0.36 3.86,1.09 1.87,1.12 3.08,2.93 3.5,4.91l0.57 -0.6c3.33,-3.33 7.95,-5.4 13.03,-5.4l36.94 0c5.15,0 9.84,2.1 13.23,5.49l0.51 0.56c0.69,-3.45 3.74,-6.05 7.39,-6.05l63.94 0c4.16,0 7.54,3.38 7.54,7.54l0 24.9c-0.01,1.3 -0.35,2.63 -1.06,3.83 -2.11,3.57 -6.73,4.76 -10.3,2.65l-6.07 -3.59 -0.54 -0.24 -21.03 -0.04 0 8.84 10.54 0 0.59 -0.06 0.46 -0.19 5.56 -3.31c1.22,-0.87 2.72,-1.37 4.33,-1.37 4.16,0 7.54,3.38 7.54,7.54l0 29.87c-0.02,1.32 -0.36,2.65 -1.09,3.86 -2.12,3.56 -6.74,4.72 -10.3,2.59 -1.63,-0.97 -5.17,-3.64 -7.09,-3.84l-10.54 0 0 23.7c15.38,0 16.56,2.67 27.28,-3.66 1.2,-0.8 2.64,-1.27 4.19,-1.27 4.16,0 7.54,3.38 7.54,7.54l0 24.9c0,4.16 -3.38,7.54 -7.54,7.54l-63.94 0c-1.32,-0.02 -2.65,-0.36 -3.86,-1.09 -1.89,-1.13 -3.1,-2.95 -3.5,-4.95l-0.53 0.55c-3.42,3.38 -8.1,5.48 -13.23,5.48l-36.94 0c-5.08,0 -9.69,-2.07 -13.03,-5.4l-0.55 -0.58c-0.72,3.41 -3.75,5.97 -7.37,5.97l-29.83 0c-1.3,-0.01 -2.63,-0.35 -3.83,-1.06l-0.75 -0.51c-1.28,0.98 -2.87,1.57 -4.6,1.57l-29.87 0c-1.32,-0.02 -2.65,-0.36 -3.86,-1.09l-1.16 -0.85c-1.34,1.21 -3.11,1.94 -5.05,1.94l-29.83 0c-1.3,-0.01 -2.63,-0.35 -3.83,-1.06l-0.75 -0.51c-1.28,0.98 -2.87,1.57 -4.6,1.57l-29.87 0c-1.32,-0.02 -2.65,-0.36 -3.86,-1.09 -3.56,-2.12 -4.72,-6.74 -2.59,-10.3 1.16,-1.95 3.62,-5.05 3.85,-7.18l0 -100.54 -0.08 -0.67 -0.26 -0.61 -3.22 -5.42c-0.87,-1.22 -1.37,-2.72 -1.37,-4.33 0,-4.16 3.38,-7.54 7.54,-7.54l54.01 0c4.82,0 9.19,1.96 12.35,5.11 3.16,3.16 5.11,7.52 5.11,12.34l0 34.07c0,3.87 -1.82,7.2 -4.6,9.88 2.79,2.68 4.6,6.01 4.6,9.88l0 47.82 0.07 0.72zm-14.77 2.78c-0.24,-1.17 -0.37,-2.35 -0.37,-3.5l0 -47.82c0,-0.54 -0.52,0.41 -1.21,-0.02 -1.77,-1.1 -3.84,-1.9 -5.52,-2.2 1.16,1.77 1.83,3.88 1.83,6.13l0 43.91c0,1.15 -0.13,2.33 -0.38,3.5l5.65 0zm-8.45 -55.26l0 -11.9 -0.51 0.48c-2.03,1.87 -4.74,3.01 -7.67,3.01l-15.21 0c-4.16,0 -7.54,-3.38 -7.54,-7.54l0 -23.91c0,-4.16 3.38,-7.54 7.54,-7.54l15.21 0c3.13,0 5.97,1.27 8.03,3.33l0.65 0.73c1.66,1.98 2.68,4.52 2.68,7.29l0 16.29c0,2.23 -0.67,4.34 -1.82,6.11 1.69,-0.3 3.78,-1.09 5.51,-2.19 0.68,-0.43 1.2,0.52 1.2,-0.01l0 -34.07c0,-0.66 -0.27,-1.27 -0.69,-1.69 -0.42,-0.42 -1.03,-0.69 -1.7,-0.69l-41.9 0c0.24,1.16 0.36,2.32 0.36,3.5l0 100.54c0,1.15 -0.13,2.34 -0.37,3.5l5.66 0c-0.26,-1.18 -0.39,-2.36 -0.39,-3.5l0 -47.7c0,-4.16 3.38,-7.54 7.54,-7.54l15.24 0c3.11,0 5.97,1.26 8.03,3.32l0.15 0.15zm-15.54 52.99l1.66 2.79c0.68,-1.14 1.36,-2.23 1.93,-3.42l0.06 -40.76 -3.99 0 0 40.17 0.06 0.64 0.28 0.58zm-0.31 -85.3l0 8.84 3.96 0 0 -8.84 -3.96 0zm102.86 -16.41c0,-1.16 0.13,-2.35 0.39,-3.55l-44.7 0c0.26,1.21 0.39,2.4 0.39,3.55l0 100.43c0,1.2 -0.12,2.39 -0.36,3.56l5.67 0c-0.26,-1.21 -0.39,-2.41 -0.39,-3.56l0 -40.61c0,-2.96 1.71,-5.53 4.21,-6.76l18.59 -10.75c3.59,-2.08 8.2,-0.85 10.27,2.73 0.69,1.19 1.01,2.49 1.01,3.77l0.02 51.61c0,1.16 -0.14,2.35 -0.4,3.56l5.68 0c-0.26,-1.2 -0.39,-2.4 -0.39,-3.56l0 -100.43zm-23.6 101.77l1.63 2.76 1.63 -2.77 0.3 -0.67 0.07 -0.67 0 -38.57 -3.96 2.29c0,5.86 -0.95,34.29 0.33,37.62zm-15.4 -65.01l-0.01 -27.88c0,-4.16 3.38,-7.54 7.54,-7.54l19.03 0c4.16,0 7.54,3.38 7.54,7.54l0 16.87c0,2.96 -1.71,5.53 -4.21,6.76l-18.59 10.75c-3.59,2.08 -8.2,0.85 -10.27,-2.73 -0.69,-1.19 -1.01,-2.49 -1.03,-3.77zm15.06 -20.34l0 7.3 3.96 -2.3 0 -5.01 -3.96 0zm82.75 -19.97l-25.4 0c-0.93,0 -1.77,0.38 -2.38,0.98 -0.6,0.6 -0.98,1.45 -0.98,2.37l0 100.84c0,0.93 0.38,1.77 0.98,2.38 0.6,0.6 1.45,0.98 2.38,0.98l36.94 0c1.02,0 1.94,-0.4 2.59,-1.05 0.64,-0.67 1.05,-1.58 1.05,-2.59l0 -1.67c-1.29,0.28 -2.56,0.42 -3.76,0.42l-22.69 0c-3.46,0 -6.62,-1.41 -8.9,-3.69 -2.27,-2.27 -3.69,-5.43 -3.69,-8.9l0 -72.58c0,-3.45 1.42,-6.58 3.69,-8.86 2.31,-2.3 5.44,-3.72 8.89,-3.72l22.69 0c1.21,0 2.48,0.14 3.76,0.42l0 -1.67c0,-1.02 -0.4,-1.94 -1.04,-2.57 -0.68,-0.65 -1.6,-1.07 -2.6,-1.07l-11.53 0zm18.52 83.92c1.2,-0.81 2.64,-1.28 4.2,-1.28 3.57,0 6.57,2.49 7.34,5.83l0 -69.46c-0.17,0.75 -0.46,1.49 -0.87,2.18 -2.11,3.57 -6.73,4.76 -10.3,2.65l-5.75 -3.42 -0.83 -0.36 -0.89 -0.09 -20.2 0 0 67.61 20.2 0c2.34,-0.19 5.11,-2.47 7.1,-3.65zm26.26 -83.92c0.23,1.12 0.35,2.26 0.35,3.38l0 100.78c0,1.13 -0.11,2.27 -0.35,3.38l44.28 0 0 -5.27c-1.14,0.24 -2.3,0.37 -3.41,0.37l-28.06 0c-4.16,0 -7.54,-3.38 -7.54,-7.54l0 -38.77c0,-4.16 3.38,-7.54 7.54,-7.54l18.07 0c1.14,0 2.28,0.11 3.41,0.35l0 -5.62c-1.13,0.23 -2.27,0.35 -3.41,0.35l-18.07 0c-4.16,0 -7.54,-3.38 -7.54,-7.54l0 -23.91c0,-4.16 3.38,-7.54 7.54,-7.54l28.06 0c1.1,0 2.25,0.13 3.41,0.37l0 -5.27 -44.28 0z"/>
  <path class="fil1" d="M462.91 124.16c-0.91,-1.52 -1.37,-3.27 -1.37,-5.05l0 -47.82c0,-5.46 -10.19,-9.89 -15.62,-9.89 5.43,0 15.62,-4.41 15.62,-9.87l0 -34.07c0,-5.48 -4.44,-9.92 -9.93,-9.92l-54.01 0 3.57 5.98c0.91,1.55 1.37,3.27 1.37,5.05l0 100.54c0,1.78 -0.47,3.54 -1.37,5.05l-3.57 5.99 29.87 0 -3.56 -5.99c-0.91,-1.52 -1.4,-3.27 -1.4,-5.05l0 -47.7 15.24 0c2.11,0 3.83,1.69 3.83,3.79l0 43.91c0,1.78 -0.5,3.51 -1.4,5.05l-3.53 5.99 29.83 0 -3.56 -5.99zm-40.38 -72.75l0 -23.91 15.21 0c2.11,0 3.83,1.72 3.83,3.82l0 16.29c0,2.1 -1.72,3.8 -3.83,3.8l-15.21 0zm117.93 -32.79c0,-1.81 0.5,-3.59 1.4,-5.17l3.53 -5.92 -68.87 0 3.54 5.92c0.93,1.58 1.4,3.36 1.4,5.17l0 100.43c0,1.81 -0.47,3.59 -1.4,5.17l-3.54 5.93 29.87 0 -3.53 -5.93c-0.93,-1.57 -1.4,-3.35 -1.4,-5.17l0 -40.61 19.03 -11 0 51.61c0,1.81 -0.5,3.59 -1.43,5.17l-3.5 5.93 29.83 0 -3.53 -5.93c-0.91,-1.57 -1.4,-3.35 -1.4,-5.17l0 -100.43zm-39 36.76l0 -27.88 19.03 0 0 16.87 -19.03 11.01zm90.29 -47.85l-25.4 0c-6.01,0 -10.89,4.88 -10.89,10.88l0 100.84c0,6.01 4.88,10.89 10.89,10.89l36.94 0c6.16,0 11.18,-5 11.18,-11.18l0 -13.72 -5.75 3.41c-1.69,1 -3.62,1.52 -5.55,1.52l-22.69 0c-2.77,0 -5.05,-2.25 -5.05,-5.05l0 -72.58c0,-2.77 2.27,-5.05 5.05,-5.05l22.69 0c1.93,0 3.86,0.52 5.55,1.52l5.75 3.42 0 -13.72c0,-6.16 -5.02,-11.18 -11.18,-11.18l-11.53 0 0 0zm32.65 0l3.62 6.07c0.88,1.46 1.32,3.15 1.32,4.85l0 100.78c0,1.69 -0.44,3.35 -1.32,4.85l-3.62 6.07 63.94 0 0 -24.9 -6.07 3.59c-1.49,0.88 -3.16,1.34 -4.88,1.34l-28.06 0 0 -38.77 18.07 0c1.72,0 3.38,0.44 4.88,1.31l6.07 3.62 0 -29.87 -6.07 3.62c-1.49,0.88 -3.16,1.32 -4.88,1.32l-18.07 0 0 -23.91 28.06 0c1.72,0 3.38,0.47 4.88,1.34l6.07 3.59 0 -24.9 -63.94 0z"/>
 </g>
</svg>
