<svg xmlns="http://www.w3.org/2000/svg" xmlns:xlink="http://www.w3.org/1999/xlink" width="263" height="263" viewBox="0 0 263 263"><defs><clipPath id="b"><rect width="263" height="263"/></clipPath></defs><g id="a" clip-path="url(#b)"><g transform="translate(-662.053 -825.701)"><g transform="translate(678.053 865.701)"><path d="M107.984,28.531q.189,15.661-.189,31.889l.377,41.512a58.47,58.47,0,0,1-6.7.472q-4.057.094-7.925,0t-7.359-.189q-3.491-.094-5.755-.283H78.36q.189-6.416.189-18.114a613.333,613.333,0,0,1-51.89-34.059Q.053,30.417.053,25.7q0-1.51,3.3-4.717a79.877,79.877,0,0,1,8.963-7.265Q17.979,9.661,25.243,4.85T40.527-4.962q8.019-5,16.133-9.812t15.378-9.057Q79.3-28.077,84.87-31.284t8.963-5.095l3.4-1.887L108.173-3.924Q51.754,22.115,51,26.832q-.377,2.076,8.114,8.208A190.065,190.065,0,0,0,78.548,47.211l-.189-18.68Z" transform="translate(-0.053 38.266)" fill="#ff4c29"/><path d="M70.132,44.147q.185.741,10,9.349T99.753,70.436l9.812,8.331q-17.587,14.81-23.7,20.92Q49.953,67.474,34.032,51.367l1.481,38.322L2.745,88.764Q2-36.755,5.522-37.125,8.3-37.31,33.754-28.979T84.017-10.651q24.808,10,24.808,13.515,0,2.222-19.439,21.012T70.132,44.147Zm-36.471-8.7Q36.438,33.039,40.6,29.8t7.775-6.017q3.61-2.777,7.035-5.276t5.369-4.165q1.944-1.666,1.944-2.222,0-1.481-13.7-6.942T33.476,1.012Q32.551,1.567,33.661,35.446Z" transform="translate(120.435 51.857)" fill="#ff4c29"/><path d="M20.374,5.383q.036,2.955-.036,6.017l.071,7.832a11.034,11.034,0,0,1-1.264.089q-.765.018-1.5,0l-1.388-.036q-.659-.018-1.086-.053h-.392q.036-1.21.036-3.418A115.721,115.721,0,0,1,5.03,9.388Q.01,5.739.01,4.849q0-.285.623-.89A15.072,15.072,0,0,1,2.324,2.588Q3.392,1.823,4.763.915T7.647-.936Q9.16-1.88,10.691-2.788t2.9-1.709q1.371-.8,2.421-1.406T17.7-6.864l.641-.356L20.41-.74Q9.765,4.173,9.623,5.063q-.071.392,1.531,1.549a35.862,35.862,0,0,0,3.667,2.3l-.036-3.525ZM36.965-6.508l6.8.676q0,1.21-.445,7.405t-.908,11.784l-.427,5.59-6.124-.071.071-1.566Q26.213,19.3,25.608,18.876q-.32-.249-.961-6.426T23.543.221l-.5-6.052,6.871-.676q.926,19.261,1.709,19.368a21,21,0,0,0,4.521-.854ZM56.582-6.4q.534,0,3.774,6.177T66.5,12.254q2.9,6.3,2.617,6.551-.534.392-12.639.107t-12.39-.57q-.249-.214,1.5-4.13t4.041-8.491q2.3-4.575,4.415-8.349T56.582-6.4Zm4.486,20.364q.178-.142-2.012-4.557T56.582,4.992q-.32,0-2.474,4.326t-1.976,4.5q.107.071,4.415.178A28.937,28.937,0,0,0,61.068,13.963Zm20.685-2.421a8.249,8.249,0,0,0,1.5-1.1q1.246-1.032,2.368-2.029t1.121-1.032l3.7,4.2q-7.8,7.548-8.544,7.548-.534,0-3.649-2.937T72.211,9.994q-2.919-3.258-2.919-4.005T72.051,2.2q2.759-3.044,5.7-5.714t3.4-2.563a16.509,16.509,0,0,1,2.67,1.8Q86.2-2.521,88.445-.776L90.688.968,86.63,5.134A56.178,56.178,0,0,0,81.61,1.36q-.285-.107-2.6,2.243a12.5,12.5,0,0,0-2.279,2.6,14.519,14.519,0,0,0,2.385,2.884Q81.467,11.613,81.752,11.542ZM103.149-6.4q.534,0,3.774,6.177t6.141,12.479q2.9,6.3,2.617,6.551-.534.392-12.639.107t-12.39-.57q-.249-.214,1.5-4.13t4.041-8.491q2.3-4.575,4.415-8.349T103.149-6.4Zm4.486,20.364q.178-.142-2.012-4.557t-2.474-4.415q-.32,0-2.474,4.326t-1.976,4.5q.107.071,4.415.178A28.937,28.937,0,0,0,107.635,13.963ZM130.42,8.694a17.3,17.3,0,0,0,1.923,1.8q1.887,1.655,3.774,3.258l1.887,1.6q-3.382,2.848-4.557,4.023-6.907-6.195-9.969-9.292l.285,7.37-6.3-.178Q117.319-6.864,118-6.935a36.467,36.467,0,0,1,5.429,1.566q4.9,1.6,9.666,3.525t4.771,2.6q0,.427-3.738,4.041T130.42,8.694Zm-7.014-1.673q.534-.463,1.335-1.086t1.5-1.157q.694-.534,1.353-1.015t1.032-.8q.374-.32.374-.427,0-.285-2.635-1.335T123.371.4A47.067,47.067,0,0,0,123.407,7.021ZM151.141-6.4q.534,0,3.774,6.177t6.141,12.479q2.9,6.3,2.617,6.551-.534.392-12.639.107t-12.39-.57q-.249-.214,1.5-4.13t4.041-8.491q2.3-4.575,4.415-8.349T151.141-6.4Zm4.486,20.364q.178-.142-2.012-4.557t-2.474-4.415q-.32,0-2.474,4.326t-1.976,4.5q.107.071,4.415.178A28.938,28.938,0,0,0,155.627,13.963Zm20.685-2.421a8.252,8.252,0,0,0,1.5-1.1q1.246-1.032,2.368-2.029T181.3,7.377l3.7,4.2q-7.8,7.548-8.544,7.548-.534,0-3.649-2.937T166.77,9.994q-2.919-3.258-2.919-4.005T166.61,2.2q2.759-3.044,5.7-5.714t3.4-2.563a16.512,16.512,0,0,1,2.67,1.8Q180.762-2.521,183-.776L185.247.968l-4.059,4.165a56.174,56.174,0,0,0-5.02-3.774q-.285-.107-2.6,2.243a12.5,12.5,0,0,0-2.279,2.6,14.519,14.519,0,0,0,2.385,2.884Q176.027,11.613,176.311,11.542Zm18.655,1.923q-.142.5,10.4-.071l-.036,5.483q-19.3.178-19.724-.748-.142-.392,1.513-3.364t3.436-5.75L192.3,6.273Q185.6-3.8,185.6-4.906q0-.285,2.047-.552t4.931-.427q2.884-.16,5.785-.285t4.931-.16l2.029-.036.32,5.732q-10.609-.071-10.823.32a7.241,7.241,0,0,0,1.121,1.584q1.193,1.513,2.439,3.115A10.849,10.849,0,0,1,199.7,6.273q.107.285-1.068,2.029t-2.421,3.418Q194.967,13.394,194.967,13.465Z" transform="translate(14.078 164.033)" fill="#ff4c29"/></g></g></g></svg>