<svg xmlns="http://www.w3.org/2000/svg" width="24.439" height="24.482" viewBox="0 0 24.439 24.482">
  <g id="Grupo_79" data-name="Grupo 79" transform="translate(-1479.999 -926.896)">
    <path id="phone" d="M15.945,5.277A5.346,5.346,0,0,1,20.168,9.5M15.945,1a9.623,9.623,0,0,1,8.5,8.489m-1.069,8.532v3.208a2.138,2.138,0,0,1-2.331,2.138,21.159,21.159,0,0,1-9.227-3.282A20.849,20.849,0,0,1,5.4,13.67,21.159,21.159,0,0,1,2.121,4.4,2.138,2.138,0,0,1,4.248,2.069H7.456A2.138,2.138,0,0,1,9.594,3.908a13.728,13.728,0,0,0,.748,3,2.138,2.138,0,0,1-.481,2.256L8.5,10.526a17.107,17.107,0,0,0,6.415,6.415l1.358-1.358a2.138,2.138,0,0,1,2.256-.481,13.728,13.728,0,0,0,3,.748,2.138,2.138,0,0,1,1.839,2.17Z" transform="translate(1478.888 927)" fill="none" stroke="#2c394b" stroke-linecap="round" stroke-linejoin="round" stroke-width="2"/>
  </g>
</svg>
