<svg xmlns="http://www.w3.org/2000/svg" width="39.592" height="39.604" viewBox="0 0 39.592 39.604"><path d="M29.609,48.289A19.8,19.8,0,1,1,49.415,29.032,19.8,19.8,0,0,1,29.609,48.289ZM12.243,28.508A17.375,17.375,0,1,0,29.379,11.014,17.474,17.474,0,0,0,12.243,28.508Z" transform="translate(-9.83 -8.685)" fill="#ff4c29"/><path d="M116.746,161.241c-2.685-.087-5.37-.167-8.056-.278a6.944,6.944,0,0,1-1.708-.3,2.956,2.956,0,0,1-2.05-2.677,32.723,32.723,0,0,1-.35-4.226c-.016-1.9.1-3.805.207-5.712a4.759,4.759,0,0,1,.715-2.328,3.252,3.252,0,0,1,2.781-1.414A148.122,148.122,0,0,1,124,144.239c.58.032,1.16.071,1.74.135a2.844,2.844,0,0,1,2.606,2.113,12.555,12.555,0,0,1,.477,2.924c.071,2.137.056,4.282.008,6.427a12.663,12.663,0,0,1-.389,2.661,2.99,2.99,0,0,1-2.884,2.415c-1.295.1-2.59.175-3.885.2-1.637.032-3.281.008-4.926.008Zm4.06-8.866c-2.224-1.16-4.377-2.28-6.554-3.416v6.816C116.444,154.639,118.6,153.526,120.806,152.374Z" transform="translate(-97.054 -133.307)" fill="#ff4c29"/></svg>